# xmcd
#
# Track frame offsets: 
#        150
#        22083
#        36911
#        64624
#        84526
#        101132
#        121106
#        138318
#        152227
#        172954
#
# Disc length: 2499 seconds
#
# Revision: 0
# Processed by: cddbd v1.5.1PL2 Copyright (c) Steve Scherf et al.
# Submitted via: ExactAudioCopy v0.95a5
#
DISCID=7f09c10a
DTITLE=Warren Burrell bka Mr. Bee - Mr Bee Sings The Blues
DYEAR=2004
DGENRE=Blues
TTITLE0=Bad Grass
TTITLE1=Trying To Fool My Friends
TTITLE2=Trying To Find A Good Woman
TTITLE3=Your Husband Already Know
TTITLE4=Bigleg Woman
TTITLE5=Party
TTITLE6=The Chase
TTITLE7=Mama
TTITLE8=I Am Going To Commit A Crime
TTITLE9=The Bridge
EXTD=
EXTT0=
EXTT1=
EXTT2=
EXTT3=
EXTT4=
EXTT5=
EXTT6=
EXTT7=
EXTT8=
EXTT9=
PLAYORDER=
